
<svg width="16px" height="17px" viewBox="189 37 16 17" version="1.1" xmlns="http://www.w3.org/2000/svg" xmlns:xlink="http://www.w3.org/1999/xlink">
    <desc></desc>
    <defs></defs>
    <path d="M202.52134,42.3818162 L201.972983,52.7339403 C201.955294,53.1100556 201.636894,53.4145298 201.265426,53.4145298 L192.314833,53.4145298 C191.943366,53.4145298 191.624965,53.1100556 191.607276,52.7339403 L191.05892,42.3818162 C191.041231,41.9877907 191.341943,41.647496 191.731099,41.6295857 C192.120255,41.6116755 192.456345,41.9161497 192.474033,42.3101752 L192.987012,51.9817099 L200.610936,51.9817099 L201.123915,42.3101752 C201.141604,41.9161497 201.477693,41.6116755 201.86685,41.6295857 C202.238317,41.647496 202.539029,41.9877907 202.52134,42.3818162 L202.52134,42.3818162 Z M204.396365,39.9818428 C204.396365,40.3758683 204.077964,40.6982528 203.688808,40.6982528 L189.891451,40.6982528 C189.502295,40.6982528 189.183895,40.3758683 189.183895,39.9818428 C189.183895,39.5878173 189.502295,39.2654328 189.891451,39.2654328 L193.783014,39.2654328 L193.783014,37.6535104 C193.783014,37.3132157 194.012969,37.1162029 194.349059,37.1162029 L199.231201,37.1162029 C199.56729,37.1162029 199.797246,37.3132157 199.797246,37.6535104 L199.797246,39.2654328 L203.688808,39.2654328 C204.077964,39.2654328 204.396365,39.5878173 204.396365,39.9818428 L204.396365,39.9818428 Z M195.021238,39.2654328 L198.559022,39.2654328 L198.559022,38.3699204 L195.021238,38.3699204 L195.021238,39.2654328 L195.021238,39.2654328 Z M195.321949,50.9070949 L195.321949,50.9070949 C195.675728,50.9070949 195.941062,50.5668002 195.941062,50.2265054 L195.764172,42.4892777 C195.764172,42.148983 195.48115,41.862419 195.127371,41.862419 C194.791282,41.862419 194.508259,42.148983 194.525948,42.507188 L194.702837,50.2623259 C194.702837,50.6026207 194.98586,50.9070949 195.321949,50.9070949 L195.321949,50.9070949 Z M198.240621,50.9070949 C198.576711,50.9070949 198.859733,50.6205309 198.859733,50.2802362 L199.036623,42.5430085 C199.036623,42.2027137 198.771289,41.8982395 198.435199,41.8982395 C198.081421,41.8982395 197.816087,42.1668932 197.798398,42.507188 L197.621509,50.2444157 C197.60382,50.6026207 197.886843,50.9070949 198.240621,50.9070949 C198.222932,50.9070949 198.222932,50.9070949 198.240621,50.9070949 L198.240621,50.9070949 Z" id="XMLID_1348_" stroke="none" fill="#00CCFF" fill-rule="evenodd"></path>
</svg>
