
<svg width="13px" height="15px" viewBox="935 4 13 15" version="1.1" xmlns="http://www.w3.org/2000/svg" xmlns:xlink="http://www.w3.org/1999/xlink">
    <!-- Generator: Sketch 3.8.2 (29753) - http://www.bohemiancoding.com/sketch -->
    <desc>Created with Sketch.</desc>
    <defs></defs>
    <g id="cross" stroke="none" stroke-width="1" fill="none" fill-rule="evenodd" transform="translate(935.776302, 5.070312)">
        <g id="Layer_1" fill="#00ABFC">
            <path d="M11.6816045,10.8194649 C12.0959274,11.2585864 12.0959274,11.9416642 11.6816045,12.3807857 C11.474443,12.6003464 11.2212457,12.697929 10.9450304,12.697929 C10.6688151,12.697929 10.4156178,12.6003464 10.2084563,12.3807857 L5.99617332,7.91638414 L1.78389034,12.3807857 C1.57672888,12.6003464 1.32353154,12.697929 1.04731626,12.697929 C0.771100984,12.697929 0.517903646,12.6003464 0.310742188,12.3807857 C-0.103580729,11.9416642 -0.103580729,11.2585864 0.310742188,10.8194649 L4.52302517,6.35506338 L0.310742188,1.89066185 C-0.103580729,1.45154039 -0.103580729,0.768462559 0.310742188,0.329341097 C0.725065104,-0.109780366 1.36956742,-0.109780366 1.78389034,0.329341097 L5.99617332,4.79374263 L10.2084563,0.329341097 C10.6227792,-0.109780366 11.2672815,-0.109780366 11.6816045,0.329341097 C12.0959274,0.768462559 12.0959274,1.45154039 11.6816045,1.89066185 L7.46932147,6.35506338 L11.6816045,10.8194649 L11.6816045,10.8194649 Z" id="XMLID_732_"></path>
        </g>
    </g>
</svg>
