<svg xmlns="http://www.w3.org/2000/svg" width="17.102745" height="17.060339" viewBox="187 44 17.102745 17.060339">
  <path fill="#fff" fill-rule="evenodd" stroke="#00abfc" stroke-width=".2" d="M195.55137 56.067175c-1.94749 0-3.5459-1.576075-3.5459-3.537006 0-1.942604 1.58004-3.537006 3.5459-3.537006 1.94749 0 3.54591 1.576076 3.54591 3.537006 0 1.942604-1.59842 3.537006-3.54591 3.537006zm0-5.772833c-1.23096 0-2.24145 1.007955-2.24145 2.235827 0 1.227873 1.01049 2.235828 2.24145 2.235828 1.23096 0 2.24146-1.007955 2.24146-2.235828 0-1.227872-1.0105-2.235827-2.24146-2.235827zm0 10.665996h-.0919c-.64304 0-1.19421-.0733-1.23096-.0733-.29396-.03665-.51443-.256571-.56955-.549794l-.18372-1.319505c-.4042-.128285-.79002-.293223-1.15747-.494814l-1.02887.788037c-.23884.183265-.55117.164938-.79002 0-.0184-.01833-.45931-.366529-.91862-.806364l-.0735-.0733c-.45932-.458162-.79002-.897997-.8084-.916323-.18372-.238244-.18372-.549794 0-.788038l.8084-1.062934c-.2021-.366529-.34908-.769711-.47769-1.172893l-1.28608-.183265c-.29396-.03665-.51443-.274897-.55118-.56812-.0184-.01833-.0919-.56812-.0919-1.209546v-.09163c0-.641426.0735-1.19122.0735-1.227873.0367-.293223.25722-.51314.55118-.56812l1.32282-.183264c.12861-.403182.29396-.788038.49606-1.154567l-.79002-1.026281c-.18372-.238244-.16535-.549794 0-.788038.0184-.01833.36745-.458161.80839-.916323l.0735-.07331c.45932-.458162.90026-.788038.91863-.806364.23884-.183265.55118-.183265.79002 0l1.06561.806364c.36745-.201591.77165-.348203 1.17584-.476488l.18373-1.282852c.0367-.293223.27559-.513141.56955-.549794.0184-.01833.56954-.09163 1.21258-.09163h.0919c.64304 0 1.19421.07331 1.23096.07331.29396.03665.51443.25657.56955.549794l.18372 1.319504c.4042.128285.79002.293224 1.15747.494815l1.02887-.788038c.23884-.183265.55117-.164938.79002 0 .0184.01833.45931.366529.91862.806364l.0735.07331c.45932.458161.79002.897996.80839.916323.18373.238244.18373.549793 0 .788037l-.79001 1.062934c.20209.36653.34907.769712.47768 1.172894l1.28608.183264c.29396.03665.51443.274897.55118.56812 0 .01833.0735.586447.0735 1.227873v.09163c0 .641426-.0735 1.191219-.0735 1.227872-.0367.293224-.25722.513141-.55118.56812l-1.32282.183265c-.12861.403182-.29396.788038-.49606 1.154567l.79002 1.044608c.18372.238243.16535.549793 0 .788037-.0184.01833-.36745.458162-.80839.916323l-.0735.07331c-.45931.458161-.90025.788037-.91862.806364-.23885.183264-.55118.183264-.79002 0l-1.06561-.824691c-.36745.201591-.77165.348203-1.17584.476488l-.18373 1.282852c-.0367.293223-.27559.513141-.56955.549794-.0184 0-.56955.0733-1.21259.0733zm-.66141-1.319504c.16536.01833.36745.01833.56955.01833h.0919c.2021 0 .4042 0 .56955-.01833l.16536-1.209546c.0367-.274897.23884-.476488.49605-.549794.56955-.128285 1.12073-.348203 1.61679-.659752.14698-.09163.33071-.109959.49606-.07331.0919.01833.18372.07331.25721.128285l.97375.733058c.12861-.109959.27559-.238244.42257-.384855l.0735-.07331c.14698-.146612.27559-.293224.38582-.421509l-.7349-.971302c-.16535-.219917-.16535-.51314-.0368-.733058.31234-.476488.53281-1.007955.66142-1.557749.0551-.274896.27559-.494814.55117-.531467l1.23096-.164938c.0184-.164938.0184-.366529.0184-.56812v-.07331c0-.201591 0-.403182-.0184-.56812l-1.21259-.164938c-.25721-.03665-.47768-.238244-.55117-.494814-.12861-.56812-.34908-1.099587-.64304-1.594402-.0368-.03665-.0551-.09163-.0735-.146611-.0735-.201591-.0368-.439835.0919-.604773l.75328-.989629c-.11024-.128285-.23885-.274897-.38583-.421508l-.0735-.07331c-.14698-.146612-.29396-.274897-.42257-.384856l-.97374.733058c-.23884.164938-.55118.164938-.77165 0-.47768-.293223-1.01049-.51314-1.56166-.659752-.25722-.05498-.45932-.274897-.49606-.549794l-.16536-1.227872c-.16535-.01833-.36745-.01833-.56955-.01833h-.0735c-.20209 0-.40419 0-.56954.01833l-.16536 1.246199c-.0367.293223-.25721.513141-.55117.549794-.55118.128285-1.08398.348202-1.56167.641425-.14698.09163-.33071.109959-.49606.07331-.0919-.01833-.18373-.07331-.25722-.128285l-.95537-.733058c-.12861.109959-.27559.238244-.42257.384855l-.0735.07331c-.14698.146612-.27558.293224-.38582.421509l.7349.971302c.16535.219917.16535.494814.0367.733058-.0184.01833-.0184.03665-.0367.05498-.29396.476488-.51443 1.007955-.64304 1.557749-.0551.25657-.27559.458161-.55117.494814l-1.23096.164938c-.0184.164938-.0184.366529-.0184.56812v.07331c0 .201591 0 .403182.0184.56812l1.21258.164938c.29396.03665.51443.256571.55118.549794v.01833c.12861.549794.34908 1.062935.64304 1.539423.0919.164938.12861.366529.0551.549793-.0184.07331-.0735.146612-.12861.219918l-.71653.952975c.11023.128286.23884.274897.38582.421509l.0735.07331c.14698.146611.29396.274896.42257.384855l.97375-.733058c.23884-.183265.58792-.164938.80839.01833.47769.293224.99212.494815 1.52492.641426.25722.05498.45931.274897.49606.549794l.16535 1.19122z"/>
</svg>
