<svg xmlns="http://www.w3.org/2000/svg" width="92" height="92" viewBox="0 0 92 92">
  <style id="style3">
    .st0{fill:#FFFFFF;}
  </style>
  <path id="path4148" fill="#fff" d="M46 0c-3.5 0-6.499609.4-6.599609.5-1.6.2-2.89961 1.4-3.09961 3l-1 7c-2.2.7-4.40039 1.499609-6.40039 2.599609l-5.800782-4.4003902c-1.3-1.0000001-2.998828-1.0000001-4.298828 0-.1.0999999-2.5 1.9003902-5 4.4003902l-.40039.400391C11.000391 16 9.1 18.4 9 18.5c-.9 1.3-1 3.000781 0 4.300781l4.300781 5.59961c-1.1 2-2.001172 4.098828-2.701172 6.298828l-7.1992184 1c-1.6.3-2.79999998 1.501562-2.99999998 3.101562C.40039062 39.000781 0 42 0 45.5v.5c0 3.5.4 6.499609.5 6.599609.2 1.6 1.4 2.89961 3 3.09961l7 1c.7 2.2 1.499609 4.40039 2.599609 6.40039l-4.4003902 5.800782c-1.0000001 1.3-1.0000001 2.998828 0 4.298828.0999999.1 1.9003902 2.5 4.4003902 5l.400391.40039C16 80.999609 18.4 82.9 18.5 83c1.3.9 3.000781 1 4.300781 0l5.59961-4.300781c2 1.1 4.098828 2.001172 6.298828 2.701172l1 7.199218c.3 1.6 1.501562 2.8 3.101562 3C39.000781 91.599609 42 92 45.5 92h.5c3.5 0 6.499609-.400391 6.599609-.400391 1.6-.2 2.89961-1.4 3.09961-3l1-7c2.2-.7 4.40039-1.499609 6.40039-2.599609l5.800782 4.5c1.3 1 2.998828 1 4.298828 0 .1-.1 2.5-1.900391 5-4.400391l.40039-.40039c2.4-2.5 4.300391-4.9 4.400391-5 .9-1.3 1-2.998828 0-4.298828l-4.300781-5.701172c1.1-2 2.001172-4.098828 2.701172-6.298828l7.199218-1c1.6-.3 2.8-1.49961 3-3.09961 0-.2.400391-3.201172.400391-6.701172v-.5c0-3.5-.400391-6.599218-.400391-6.699218-.2-1.6-1.4-2.89961-3-3.09961l-7-1c-.7-2.2-1.499609-4.40039-2.599609-6.40039l4.300781-5.800782c1-1.3 1-2.998828 0-4.298828-.1-.1-1.90039-2.5-4.40039-5L78.5 13.400391C76 11.000391 73.6 9.1 73.5 9c-1.3-.9-3.000781-1-4.300781 0l-5.59961 4.300781c-2-1.1-4.098828-2.001172-6.298828-2.701172l-1-7.1992184c-.3-1.6-1.501562-2.79999998-3.101562-2.99999998C52.999219.40039062 50 0 46.5 0H46zm5.300781 15.648438c.118701.131249.24653.253906.382813.365234.408847.333984.891015.573047 1.416015.685547-.525-.1125-1.007031-.351563-1.416015-.685547-.136722-.111649-.263774-.233552-.382813-.365234zM26.400391 20c.299556.224668.655557.449398 1.02539.589844-.370312-.140625-.72539-.364844-1.02539-.589844zm1.40039.699219c.45.1.924414.124609 1.386719.0625-.4625.0625-.936719.0375-1.386719-.0625zm44 5.800781c-.175.225-.31875.474536-.429687.740234.110937-.265625.254687-.515234.429687-.740234zm-.572265 1.150391c-.077735.278997-.121875.567877-.13086.859375.008985-.291407.053125-.580469.13086-.859375zm-50.238282 1.445312c-.084375.342188-.215625.678906-.390625 1.003906.175-.325.306177-.661718.390625-1.003906zM46 33.800781C52.7 33.800781 58.199219 39.3 58.199219 46 58.199219 52.7 52.7 58.199219 46 58.199219 39.3 58.199219 33.800781 52.7 33.800781 46 33.800781 39.3 39.3 33.800781 46 33.800781zM7.1992188 42.5c-.1.9-.0996094 1.999609-.0996094 3.099609 0-1.1-.0003906-2.199609.0996094-3.099609zm77.6015622.400391c.1.9.09961 1.999609.09961 3.099609 0-1.1.00039-2.199609-.09961-3.099609zM7.0996094 46c0 1.1-.0003906 2.199609.0996094 3.099609-.1000001-.9-.0996094-1.999609-.0996094-3.099609zm77.8007816.400391c0 1.1.00039 2.199609-.09961 3.099609.1-.9.09961-1.999609.09961-3.099609zm-64.113282 16.5625c.046875.384375.031055.775586-.064453 1.158203.095604-.382617.111109-.773828.064453-1.158203zM28.337891 71c.39375.0125.783203.088281 1.15039.222656.367188.134375.711719.328125 1.011719.578125-.3-.25-.644495-.443603-1.011719-.578125-.367224-.134521-.756592-.209961-1.15039-.222656zm4.148437 1.910156c1.163453.588475 2.363298 1.078927 3.583984 1.515625-1.220337-.436581-2.420859-.927379-3.583984-1.515625zm6.314453 2.390625c.525.1125 1.007031.351563 1.416016.685547.136721.111649.263774.233552.382812.365234-.118701-.131249-.24653-.253906-.382812-.365234-.408847-.333984-.891016-.573047-1.416016-.685547zm3.59961 9.5c.9.1 1.999609.09961 3.099609.09961-1.1 0-2.199609.00039-3.099609-.09961zm6.699218 0c-.9.1-1.999609.09961-3.099609.09961 1.1 0 2.199609.00039 3.099609-.09961z"/>
</svg>
