
<svg width="18px" height="18px" viewBox="187 44 18 18" version="1.1" xmlns="http://www.w3.org/2000/svg" xmlns:xlink="http://www.w3.org/1999/xlink">
    <!-- Generator: Sketch 3.8.2 (29753) - http://www.bohemiancoding.com/sketch -->
    <desc>Created with Sketch.</desc>
    <defs></defs>
    <path d="M196.353555,56.647071 C194.406064,56.647071 192.807653,55.0709959 192.807653,53.1100653 C192.807653,51.1674611 194.387692,49.5730595 196.353555,49.5730595 C198.301045,49.5730595 199.899457,51.1491346 199.899457,53.1100653 C199.899457,55.0526694 198.301045,56.647071 196.353555,56.647071 L196.353555,56.647071 Z M196.353555,50.8742378 C195.122594,50.8742378 194.112104,51.8821928 194.112104,53.1100653 C194.112104,54.3379377 195.122594,55.3458927 196.353555,55.3458927 C197.584515,55.3458927 198.595006,54.3379377 198.595006,53.1100653 C198.595006,51.8821928 197.584515,50.8742378 196.353555,50.8742378 L196.353555,50.8742378 Z M196.353555,61.5402344 L196.261692,61.5402344 C195.618653,61.5402344 195.067476,61.4669285 195.030731,61.4669285 C194.73677,61.4302756 194.5163,61.2103582 194.461182,60.9171349 L194.277457,59.5976302 C193.873261,59.469345 193.487437,59.3044069 193.119986,59.1028159 L192.091123,59.8908534 C191.85228,60.074118 191.539947,60.0557915 191.301104,59.8908534 C191.282731,59.872527 190.84179,59.5243244 190.382476,59.0844894 L190.308986,59.0111836 C189.849672,58.5530223 189.518966,58.1131874 189.500594,58.0948609 C189.316868,57.856617 189.316868,57.5450673 189.500594,57.3068234 L190.308986,56.243889 C190.106888,55.8773599 189.959908,55.4741779 189.8313,55.0709959 L188.545221,54.8877314 C188.251261,54.8510784 188.03079,54.6128345 187.994045,54.3196113 C187.975672,54.3012848 187.902182,53.7514912 187.902182,53.1100653 L187.902182,53.018433 C187.902182,52.3770071 187.975672,51.8272134 187.975672,51.7905605 C188.012417,51.4973373 188.232888,51.2774198 188.526849,51.2224404 L189.849672,51.0391759 C189.97828,50.6359939 190.143633,50.2511384 190.345731,49.8846093 L189.555712,48.8583278 C189.371986,48.6200839 189.390359,48.3085342 189.555712,48.0702903 C189.574084,48.0519638 189.923162,47.6121289 190.364104,47.1539675 L190.437594,47.0806617 C190.896908,46.6225004 191.337849,46.2926242 191.356221,46.2742977 C191.595064,46.0910332 191.907398,46.0910332 192.146241,46.2742977 L193.211849,47.0806617 C193.5793,46.8790707 193.983496,46.7324591 194.387692,46.6041739 L194.571417,45.3213221 C194.608162,45.0280988 194.847006,44.8081814 195.140966,44.7715284 C195.159339,44.753202 195.710515,44.6798962 196.353555,44.6798962 L196.445417,44.6798962 C197.088457,44.6798962 197.639633,44.753202 197.676378,44.753202 C197.970339,44.7898549 198.19081,45.0097724 198.245927,45.3029956 L198.429653,46.6225004 C198.833849,46.7507855 199.219672,46.9157236 199.587123,47.1173146 L200.615986,46.3292771 C200.854829,46.1460125 201.167162,46.164339 201.406006,46.3292771 C201.424378,46.3476035 201.865319,46.6958062 202.324633,47.1356411 L202.398123,47.2089469 C202.857437,47.6671083 203.188143,48.1069432 203.206515,48.1252696 C203.390241,48.3635135 203.390241,48.6750633 203.206515,48.9133072 L202.416496,49.9762415 C202.618594,50.3427706 202.765574,50.7459526 202.894182,51.1491346 L204.18026,51.3323992 C204.474221,51.3690521 204.694692,51.607296 204.731437,51.9005193 C204.731437,51.9188457 204.804927,52.4869658 204.804927,53.1283917 L204.804927,53.220024 C204.804927,53.8614499 204.731437,54.4112435 204.731437,54.4478964 C204.694692,54.7411197 204.474221,54.9610372 204.18026,55.0160165 L202.857437,55.1992811 C202.728829,55.6024631 202.563476,55.9873186 202.361378,56.3538477 L203.151398,57.3984556 C203.335123,57.6366995 203.316751,57.9482493 203.151398,58.1864932 C203.133025,58.2048196 202.783947,58.6446545 202.343006,59.1028159 L202.269515,59.1761217 C201.810202,59.6342831 201.36926,59.9641593 201.350888,59.9824857 C201.112045,60.1657503 200.799711,60.1657503 200.560868,59.9824857 L199.49526,59.1577953 C199.12781,59.3593863 198.723613,59.5059979 198.319417,59.6342831 L198.135692,60.9171349 C198.098947,61.2103582 197.860104,61.4302756 197.566143,61.4669285 C197.54777,61.4669285 196.996594,61.5402344 196.353555,61.5402344 L196.353555,61.5402344 Z M195.692143,60.2207296 C195.857496,60.2390561 196.059594,60.2390561 196.261692,60.2390561 L196.353555,60.2390561 C196.555653,60.2390561 196.757751,60.2390561 196.923104,60.2207296 L197.088457,59.0111836 C197.125202,58.7362868 197.3273,58.5346958 197.584515,58.46139 C198.154064,58.3331048 198.705241,58.1131874 199.2013,57.8016376 C199.34828,57.7100054 199.532006,57.6916789 199.697359,57.7283318 C199.789221,57.7466583 199.881084,57.8016376 199.954574,57.856617 L200.928319,58.5896752 C201.056927,58.4797164 201.203908,58.3514313 201.350888,58.2048196 L201.424378,58.1315138 C201.571359,57.9849022 201.699966,57.8382905 201.810202,57.7100054 L201.0753,56.7387033 C200.909947,56.5187858 200.909947,56.2255625 201.038555,56.0056451 C201.350888,55.5291573 201.571359,54.9976901 201.699966,54.4478964 C201.755084,54.1729996 201.975555,53.9530822 202.251143,53.9164293 L203.482104,53.7514912 C203.500476,53.5865531 203.500476,53.3849621 203.500476,53.1833711 L203.500476,53.1100653 C203.500476,52.9084743 203.500476,52.7068833 203.482104,52.5419452 L202.269515,52.3770071 C202.0123,52.3403542 201.791829,52.1387632 201.718339,51.8821928 C201.589731,51.3140727 201.36926,50.7826055 201.0753,50.2877913 C201.038555,50.2511384 201.020182,50.196159 201.001809,50.1411796 C200.928319,49.9395886 200.965064,49.7013447 201.093672,49.5364066 L201.846947,48.5467781 C201.736711,48.4184929 201.608104,48.2718813 201.461123,48.1252696 L201.387633,48.0519638 C201.240653,47.9053522 201.093672,47.777067 200.965064,47.6671083 L199.991319,48.4001664 C199.752476,48.5651045 199.440143,48.5651045 199.219672,48.4001664 C198.741986,48.1069432 198.209182,47.8870257 197.658006,47.7404141 C197.40079,47.6854347 197.198692,47.4655173 197.161947,47.1906204 L196.996594,45.962748 C196.831241,45.9444215 196.629143,45.9444215 196.427045,45.9444215 L196.353555,45.9444215 C196.151457,45.9444215 195.949359,45.9444215 195.784006,45.962748 L195.618653,47.2089469 C195.581908,47.5021702 195.361437,47.7220876 195.067476,47.7587405 C194.5163,47.8870257 193.983496,48.1069432 193.50581,48.4001664 C193.358829,48.4917987 193.175104,48.5101252 193.009751,48.4734723 C192.917888,48.4551458 192.826025,48.4001664 192.752535,48.3451871 L191.797162,47.6121289 C191.668555,47.7220876 191.521574,47.8503728 191.374594,47.9969844 L191.301104,48.0702903 C191.154123,48.2169019 191.025515,48.3635135 190.91528,48.4917987 L191.650182,49.4631008 C191.815535,49.6830183 191.815535,49.9579151 191.686927,50.196159 C191.668555,50.2144854 191.668555,50.2328119 191.650182,50.2511384 C191.356221,50.7276262 191.135751,51.2590934 191.007143,51.808887 C190.952025,52.0654574 190.731555,52.2670484 190.455966,52.3037013 L189.225006,52.4686394 C189.206633,52.6335774 189.206633,52.8351684 189.206633,53.0367594 L189.206633,53.1100653 C189.206633,53.3116563 189.206633,53.5132473 189.225006,53.6781854 L190.437594,53.8431234 C190.731555,53.8797764 190.952025,54.0996938 190.98877,54.3929171 L190.98877,54.4112435 C191.117378,54.9610372 191.337849,55.4741779 191.63181,55.9506657 C191.723672,56.1156038 191.760417,56.3171948 191.686927,56.5004594 C191.668555,56.5737652 191.613437,56.647071 191.558319,56.7203768 L190.84179,57.6733524 C190.952025,57.8016376 191.080633,57.9482493 191.227613,58.0948609 L191.301104,58.1681667 C191.448084,58.3147784 191.595064,58.4430635 191.723672,58.5530223 L192.697417,57.8199641 C192.936261,57.6366995 193.285339,57.655026 193.50581,57.8382905 C193.983496,58.1315138 194.497927,58.3331048 195.030731,58.4797164 C195.287947,58.5346958 195.490045,58.7546133 195.52679,59.0295101 L195.692143,60.2207296 L195.692143,60.2207296 Z" id="XMLID_160_" stroke="none" fill="#00CCFF" fill-rule="evenodd"></path>
</svg>
