
<svg width="180px" height="72px" viewBox="561 122 180 72" version="1.1" xmlns="http://www.w3.org/2000/svg" xmlns:xlink="http://www.w3.org/1999/xlink">
    <!-- Generator: Sketch 3.8.2 (29753) - http://www.bohemiancoding.com/sketch -->
    <desc>Created with Sketch.</desc>
    <defs>
        <rect id="path-1" x="0" y="0" width="179.166667" height="71.3754316"></rect>
        <mask id="mask-2" maskContentUnits="userSpaceOnUse" maskUnits="objectBoundingBox" x="0" y="0" width="179.166667" height="71.3754316" fill="white">
            <use xlink:href="#path-1"></use>
        </mask>
    </defs>
    <g id="footer" stroke="none" stroke-width="1" fill="none" fill-rule="evenodd" transform="translate(561.000000, 122.000000)">
        <g id="Group-4" transform="translate(16.722222, 23.856209)">
            <rect id="Text" fill="#ACEFFF" x="0" y="14.3137255" width="81.065918" height="2.81005636"></rect>
            <rect id="Text" fill="#ACEFFF" x="0" y="20.2777778" width="81.065918" height="2.81005636"></rect>
            <rect id="Text" fill="#00CCFF" x="0" y="0" width="32.25" height="2.81005636"></rect>
            <rect id="Text" fill="#00CCFF" x="100.333333" y="0" width="21.9419454" height="2.81005636"></rect>
            <path d="M117.729869,23.0001474 C120.081303,23.0001474 121.987517,21.0556256 121.987517,18.6569364 C121.987517,16.2582473 120.081303,14.3137255 117.729869,14.3137255 C115.378436,14.3137255 113.472222,16.2582473 113.472222,18.6569364 C113.472222,21.0556256 115.378436,23.0001474 117.729869,23.0001474 Z" id="BG" fill="#ACEFFF"></path>
            <path d="M104.590981,23.0001474 C106.942414,23.0001474 108.848628,21.0556256 108.848628,18.6569364 C108.848628,16.2582473 106.942414,14.3137255 104.590981,14.3137255 C102.239547,14.3137255 100.333333,16.2582473 100.333333,18.6569364 C100.333333,21.0556256 102.239547,23.0001474 104.590981,23.0001474 Z" id="BG" fill="#ACEFFF"></path>
            <path d="M130.868758,23.0001474 C133.220192,23.0001474 135.126406,21.0556256 135.126406,18.6569364 C135.126406,16.2582473 133.220192,14.3137255 130.868758,14.3137255 C128.517325,14.3137255 126.611111,16.2582473 126.611111,18.6569364 C126.611111,21.0556256 128.517325,23.0001474 130.868758,23.0001474 Z" id="BG" fill="#ACEFFF"></path>
            <path d="M142.813203,23.0001474 C145.164636,23.0001474 147.07085,21.0556256 147.07085,18.6569364 C147.07085,16.2582473 145.164636,14.3137255 142.813203,14.3137255 C140.461769,14.3137255 138.555556,16.2582473 138.555556,18.6569364 C138.555556,21.0556256 140.461769,23.0001474 142.813203,23.0001474 Z" id="BG" fill="#ACEFFF"></path>
        </g>
        <use id="Screen" stroke-opacity="0" stroke="#00CCFF" mask="url(#mask-2)" stroke-width="4" xlink:href="#path-1"></use>
    </g>
</svg>
