
<svg width="180px" height="72px" viewBox="561 0 180 72" version="1.1" xmlns="http://www.w3.org/2000/svg" xmlns:xlink="http://www.w3.org/1999/xlink">
    <!-- Generator: Sketch 3.8.2 (29753) - http://www.bohemiancoding.com/sketch -->
    <desc>Created with Sketch.</desc>
    <defs>
        <rect id="path-1" x="0" y="0" width="179.166667" height="71.3754316"></rect>
        <mask id="mask-2" maskContentUnits="userSpaceOnUse" maskUnits="objectBoundingBox" x="0" y="0" width="179.166667" height="71.3754316" fill="white">
            <use xlink:href="#path-1"></use>
        </mask>
    </defs>
    <g id="image-/-text" stroke="none" stroke-width="1" fill="none" fill-rule="evenodd" transform="translate(561.000000, 0.000000)">
        <polygon id="Rectangle-222" fill-opacity="0.5" fill="#ACEFFF" points="7.16666667 21.2853765 7.16666667 1.19281046 179.166667 1.19281046 179.166667 70.375817 7.16666667 70.375817"></polygon>
        <g id="Body" transform="translate(111.083333, 26.241830)" fill="#00CCFF">
            <polygon id="Text" points="0 0 41.6934377 0 41.6934377 2.81005636 18.9361979 2.81005636 0 2.81005636"></polygon>
            <rect id="Text" x="0" y="11.2402255" width="41.6934377" height="2.81005636"></rect>
            <rect id="Text" x="0" y="5.62011273" width="35.4957645" height="2.81005636"></rect>
            <rect id="Text" x="0" y="16.8603382" width="24.2272679" height="2.81005636"></rect>
        </g>
        <rect id="Rectangle-222" fill="#FFFFFF" x="0" y="1.78921569" width="89.5833333" height="67.9901961"></rect>
        <polygon id="Mountains" fill="#ACEFFF" points="38.587868 33.2130441 44.7938183 38.9558716 54.6247761 27.4346405 68.3881175 47.1050351 28.6666667 47.1050351"></polygon>
        <ellipse id="Sun" fill="#ACEFFF" cx="34.9995294" cy="25.4046671" rx="3.94397384" ry="3.93407891"></ellipse>
        <use id="Screen" stroke-opacity="0" stroke="#00CCFF" mask="url(#mask-2)" stroke-width="4" xlink:href="#path-1"></use>
    </g>
</svg>
