<svg xmlns="http://www.w3.org/2000/svg" width="79" height="80" viewBox="0 35 79 80" xmlns:xlink="http://www.w3.org/1999/xlink">
  <defs>
    <path id="a" d="M0 0h78.8345v78.705H0z"/>
    <mask id="b" width="78.8345" height="78.7049" x="0" y="0" fill="#fff">
      <use xlink:href="#a"/>
    </mask>
  </defs>
  <g fill="none" fill-rule="evenodd" stroke="#0CF" stroke-width="4" transform="translate(0 35.36)">
    <use fill="#ACEFFF" fill-opacity=".5407" mask="url(#b)" xlink:href="#a"/>
    <path d="M39.873 18.627c.96.4166.7456 1.0473.4286 4.0116-.326 3.0713-1.4094 8.6653-3.5006 14.157-2.0935 5.4983-5.1995 10.8942-7.9065 14.8944-2.7024 3.9957-5.0194 6.5935-6.7822 8.0916-1.772 1.498-2.9966 1.8966-3.797 2.0332-.7937.1366-1.154 0-1.3684-.3985-.215-.3984-.29-1.07-.105-1.8646.18-.8037.611-1.7372 1.833-2.9302 1.234-1.2 3.252-2.6638 6.0683-4.0344 2.8163-1.363 6.422-2.632 9.3842-3.494 2.9622-.8675 5.27-1.332 7.2906-1.6962 2.025-.3665 3.756-.633 5.4505-.765 1.699-.1365 3.3615-.1365 4.985 0 1.624.132 3.2135.3985 4.5863.7264 1.3706.3346 2.527.7354 3.537 1.3706 1.008.6306 1.877 1.498 2.308 2.4634.438.9674.438 2.033.0752 2.798-.3604.765-1.0856 1.234-1.9134 1.4957-.8278.2663-1.7674.3323-2.887 0-1.12-.3325-2.424-1.0634-3.7926-2.0333-1.3683-.963-2.8142-2.1583-4.691-4.0253-1.877-1.867-4.1893-4.4032-6.137-6.8644-1.9474-2.4658-3.5415-4.863-4.6247-6.894-1.0787-2.0333-1.658-3.6976-2.1277-5.3664-.4697-1.6643-.83-3.3287-.9737-4.8268-.1437-1.5026-.0753-2.8345.0707-3.8932.1437-1.07.365-1.867.723-2.3997.3603-.535.869-.8016 1.229-.9337.3605-.1363.5794-.1363.7938-.166.2144-.032.4287-.1.7594 0 .3146.091.7342.346 1.0832.544z"/>
  </g>
</svg>
