
<svg width="22px" height="13px" viewBox="899 5 22 13" version="1.1" xmlns="http://www.w3.org/2000/svg" xmlns:xlink="http://www.w3.org/1999/xlink">
    <!-- Generator: Sketch 3.8.2 (29753) - http://www.bohemiancoding.com/sketch -->
    <desc>Created with Sketch.</desc>
    <defs></defs>
    <g id="preview" stroke="none" stroke-width="1" fill="none" fill-rule="evenodd" transform="translate(899.144531, 5.000000)">
        <g id="Layer_1" fill="#00ABFC">
            <path d="M20.558523,5.9380787 C20.4009001,5.69864005 16.7530571,0 10.3580729,0 C3.96308877,0 0.315245697,5.69864005 0.157622849,5.9380787 C-0.0450350996,6.24934896 -0.0450350996,6.68033854 0.157622849,7.01555266 C0.315245697,7.23104745 3.96308877,12.9296875 10.3580729,12.9296875 C16.7530571,12.9296875 20.4009001,7.23104745 20.558523,6.9916088 C20.7611809,6.68033854 20.7611809,6.24934896 20.558523,5.9380787 L20.558523,5.9380787 Z M10.3580729,11.0141782 C6.0121858,11.0141782 3.03986923,7.7578125 2.02657948,6.46484375 C3.03986923,5.14793113 5.98966825,1.91550926 10.3580729,1.91550926 C14.70396,1.91550926 17.6762766,5.171875 18.6895663,6.46484375 C17.6537591,7.78175637 14.70396,11.0141782 10.3580729,11.0141782 L10.3580729,11.0141782 Z M10.8759766,2.53804977 C9.88520437,2.39438657 8.91694973,2.6577691 8.10631793,3.30425347 L8.10631793,3.30425347 C6.4625368,4.62116609 6.12477355,7.11132813 7.36323879,8.85923032 C7.97121264,9.72120949 8.82687953,10.2479745 9.81765172,10.4155816 C9.99779212,10.4395255 10.1779325,10.4634693 10.3355554,10.4634693 C11.1461872,10.4634693 11.9117839,10.1761429 12.5647928,9.67332176 C14.2085739,8.35640914 14.5463372,5.86624711 13.3078719,4.11834491 C12.7449332,3.23242188 11.8667488,2.68171296 10.8759766,2.53804977 L10.8759766,2.53804977 Z M11.7766786,8.50007234 C11.2812925,8.90711806 10.6508011,9.07472512 10.0203097,8.97894965 C9.38981827,8.88317419 8.82687953,8.5240162 8.44408118,7.99725116 C7.67848449,6.87188947 7.88114244,5.26765046 8.93946728,4.42961516 C9.43485337,4.02256944 10.0653448,3.85496238 10.6958362,3.95073785 C11.3263276,4.04651331 11.8892663,4.4056713 12.2720647,4.93243634 C13.0376613,6.05779803 12.8350034,7.66203704 11.7766786,8.50007234 L11.7766786,8.50007234 Z M11.6866084,5.02821181 C11.8667488,5.19581887 11.956819,5.45920139 11.956819,5.69864005 C11.956819,5.9380787 11.8667488,6.20146123 11.6866084,6.36906829 C11.5289855,6.53667535 11.2812925,6.65639468 11.056117,6.65639468 C10.8084239,6.65639468 10.5832484,6.56061921 10.4256256,6.36906829 C10.2454852,6.17751736 10.155415,5.9380787 10.155415,5.69864005 C10.155415,5.43525752 10.2454852,5.19581887 10.4256256,5.02821181 C10.5832484,4.83666088 10.8309415,4.74088542 11.056117,4.74088542 C11.30381,4.76482928 11.5289855,4.86060475 11.6866084,5.02821181 L11.6866084,5.02821181 Z" id="XMLID_1239_"></path>
        </g>
    </g>
</svg>
