
<svg width="181px" height="72px" viewBox="280 366 181 72" version="1.1" xmlns="http://www.w3.org/2000/svg" xmlns:xlink="http://www.w3.org/1999/xlink">
    <!-- Generator: Sketch 3.8.2 (29753) - http://www.bohemiancoding.com/sketch -->
    <desc>Created with Sketch.</desc>
    <defs>
        <rect id="path-1" x="0.916666667" y="0" width="179.166667" height="71.3754316"></rect>
        <mask id="mask-2" maskContentUnits="userSpaceOnUse" maskUnits="objectBoundingBox" x="0" y="0" width="179.166667" height="71.3754316" fill="white">
            <use xlink:href="#path-1"></use>
        </mask>
    </defs>
    <g id="quote" stroke="none" stroke-width="1" fill="none" fill-rule="evenodd" transform="translate(280.000000, 366.000000)">
        <use id="Screen" stroke-opacity="0" stroke="#00CCFF" mask="url(#mask-2)" stroke-width="4" xlink:href="#path-1"></use>
        <rect id="text" fill="#ACEFFF" x="45.6567383" y="26" width="94" height="6.58583502"></rect>
        <rect id="text" fill="#ACEFFF" x="45.1371592" y="38.5511108" width="94.5418561" height="6.58583502"></rect>
        <path d="M30.75,35.9642857 L30.75,34.9888214 C30.75,33.3178571 31.6785714,32.1097857 33.0714286,32.1097857 L33.0714286,29 C29.8214286,29 27.9642857,31.1826071 27.9642857,35.0357143 L27.9642857,42 L34,42 L34,35.9642857 L30.75,35.9642857 L30.75,35.9642857 Z M23.7857143,34.9888214 C23.7857143,33.3178571 24.7142857,32.1097857 26.1071429,32.1097857 L26.1071429,29 C22.8571429,29 21,31.1826071 21,35.0357143 L21,42 L27.0357143,42 L27.0357143,35.9642857 L23.7857143,35.9642857 L23.7857143,34.9888214 L23.7857143,34.9888214 Z" id="Shape" fill="#00CCFF"></path>
        <path d="M159.785714,35.9642857 L159.785714,34.9888214 C159.785714,33.3178571 160.714286,32.1097857 162.107143,32.1097857 L162.107143,29 C158.857143,29 157,31.1826071 157,35.0357143 L157,42 L163.035714,42 L163.035714,35.9642857 L159.785714,35.9642857 L159.785714,35.9642857 Z M152.785714,34.9888214 C152.785714,33.3178571 153.714286,32.1097857 155.107143,32.1097857 L155.107143,29 C151.857143,29 150,31.1826071 150,35.0357143 L150,42 L156.035714,42 L156.035714,35.9642857 L152.785714,35.9642857 L152.785714,34.9888214 L152.785714,34.9888214 Z" id="Shape" fill="#00CCFF" transform="translate(156.517857, 35.500000) scale(-1, -1) translate(-156.517857, -35.500000) "></path>
    </g>
</svg>
