<?xml version="1.0" encoding="utf-8"?>
<!-- Generator: Adobe Illustrator 19.1.0, SVG Export Plug-In . SVG Version: 6.00 Build 0)  -->
<svg version="1.1" id="Layer_1" xmlns="http://www.w3.org/2000/svg" xmlns:xlink="http://www.w3.org/1999/xlink" x="0px" y="0px"
	 viewBox="-8 -31 79 80" style="enable-background:new -8 -31 79 80;" xml:space="preserve">
<style type="text/css">
	.st0{clip-path:url(#SVGID_2_);}
	.st1{opacity:0.5407;clip-path:url(#SVGID_4_);fill:#ACEEFF;enable-background:new    ;}
	.st2{clip-path:url(#SVGID_6_);}
	.st3{clip-path:url(#SVGID_8_);fill:none;stroke:#00CBFF;stroke-width:4;stroke-miterlimit:10;}
	.st4{clip-path:url(#SVGID_10_);}
	.st5{clip-path:url(#SVGID_12_);fill:#00CBFF;}
</style>
<g>
	<g>
		<defs>
			<rect id="SVGID_1_" x="-7.9" y="-30.3" width="78.8" height="78.7"/>
		</defs>
		<clipPath id="SVGID_2_">
			<use xlink:href="#SVGID_1_"  style="overflow:visible;"/>
		</clipPath>
		<g class="st0">
			<g>
				<defs>
					<rect id="SVGID_3_" x="-590.4" y="-2835.8" width="1300" height="3167"/>
				</defs>
				<clipPath id="SVGID_4_">
					<use xlink:href="#SVGID_3_"  style="overflow:visible;"/>
				</clipPath>
				<rect x="-7.9" y="-30.3" class="st1" width="78.8" height="78.7"/>
			</g>
		</g>
		<g class="st0">
			<g>
				<defs>
					<rect id="SVGID_5_" x="-7.9" y="-30.3" width="78.8" height="78.7"/>
				</defs>
				<clipPath id="SVGID_6_">
					<use xlink:href="#SVGID_5_"  style="overflow:visible;"/>
				</clipPath>
				<g class="st2">
					<g>
						<defs>
							<rect id="SVGID_7_" x="-590.4" y="-2835.8" width="1300" height="3167"/>
						</defs>
						<clipPath id="SVGID_8_">
							<use xlink:href="#SVGID_7_"  style="overflow:visible;"/>
						</clipPath>
						<rect x="-7.9" y="-30.3" class="st3" width="78.8" height="78.7"/>
					</g>
				</g>
				<g class="st2">
					<g>
						<defs>
							<path id="SVGID_9_" d="M55.8-1c0,0-0.5-3.4-2-4.9c-1.9-2-4-2-4.9-2.1C42-8.5,31.7-8.5,31.7-8.5l0,0c0,0-10.3,0-17.2,0.5
								c-1,0.1-3,0.1-4.9,2.1C8.1-4.4,7.7-1,7.7-1S7.2,3,7.2,6.9v3.7c0,4,0.5,7.9,0.5,7.9s0.5,3.4,1.9,4.9c1.9,2,4.3,1.9,5.4,2.1
								c3.9,0.4,16.7,0.5,16.7,0.5s10.3,0,17.2-0.5c1-0.1,3.1-0.1,4.9-2.1c1.5-1.5,2-4.9,2-4.9s0.5-4,0.5-7.9V6.9
								C56.3,3,55.8-1,55.8-1z M26.7,15.2V1.4L40,8.3L26.7,15.2z"/>
						</defs>
						<clipPath id="SVGID_10_">
							<use xlink:href="#SVGID_9_"  style="overflow:visible;"/>
						</clipPath>
						<g class="st4">
							<g>
								<defs>
									<rect id="SVGID_11_" x="-590.4" y="-2835.8" width="1300" height="3167"/>
								</defs>
								<clipPath id="SVGID_12_">
									<use xlink:href="#SVGID_11_"  style="overflow:visible;"/>
								</clipPath>
								<rect x="2.3" y="-13.3" class="st5" width="59.1" height="44.5"/>
							</g>
						</g>
					</g>
				</g>
			</g>
		</g>
	</g>
</g>
</svg>
