<svg xmlns="http://www.w3.org/2000/svg" width="179.16667" height="69.127388" viewBox="106 153 179.16667 69.127388">
  <g fill="none" fill-rule="evenodd">
    <path fill="#acefff" d="M124.083 189.94h29.5112v2.8100564H124.083zm0 6h29.5112v2.8100564H124.083zm0 6h29.5112v2.8100564H124.083zm37-12h29.5112v2.8100564H161.083zm0 6h29.5112v2.8100564H161.083zm0 6h29.5112v2.8100564H161.083zm37-12h29.5112v2.8100564H198.083zm0 6h29.5112v2.8100564H198.083zm0 6h29.5112v2.8100564H198.083zm37-12h29.5112v2.8100564H235.083zm0 6h29.5112v2.8100564H235.083zm0 6h29.5112v2.8100564H235.083z"/>
    <path fill="#0cf" d="M136.083 171.94h118v6.636641h-118z"/>
  </g>
</svg>
