<svg xmlns="http://www.w3.org/2000/svg" width="179.16667" height="69.127388" viewBox="106 153 179.16667 69.127388">
  <g fill="none" fill-rule="evenodd" transform="translate(105.083 125.94)">
    <path fill="#acefff" d="M54 55h73.699219v2.8100564H54z"/>
    <path fill="#0cf" d="M151.57221 71.076915c-.44396 0-.84757-.159668-1.17045-.479005l-10.09015-10.378439c-.60541-.638673-.60541-1.6366.0404-2.275273.64577-.598756 1.65478-.598756 2.30055.03992l8.91969 9.180927 8.9197-9.180927c.6054-.638673 1.65478-.638673 2.30055-.03992.64577.598756.64577 1.6366.0404 2.275273L152.74267 70.59791c-.32288.319337-.72649.479005-1.17046.479005z"/>
    <path fill="#acefff" d="M54 62h73.699219v2.8100564H54zm0 7h73.699219v2.8100564H54zm0 7h73.699219v2.8100564H54z"/>
    <path fill="#0cf" d="M54 47h32.25v2.8100564H54z"/>
    <circle cx="28" cy="63" r="13" fill="#acefff" stroke="#acefff" stroke-width="2"/>
  </g>
</svg>
