<svg xmlns="http://www.w3.org/2000/svg" width="179.16667" height="69.127388" viewBox="106 153 179.16667 69.127388">
  <g fill="#0cf" fill-rule="evenodd">
    <path d="M209.138406 187.603211l-20.800555-16.535747c-.594302-.4509749-1.386704-.55119155-2.080056-.2505416-.693352.3507583-1.139078 1.0522748-1.139078 1.8038997v33.0714939c0 .751624.445726 1.453141 1.139078 1.803899.297151.150325.594302.200434.841927.200434.445726 0 .891453-.150325 1.238129-.450975l20.800555-16.535747c.495251-.400867.742877-.952058.742877-1.553358 0-.6013-.297151-1.2026-.742877-1.553358zm-20.057678 13.980222v-24.8537284l15.600416 12.4268644-15.600416 12.426864z"/>
    <path fill-opacity=".45" d="M237.76391 187.982482l-15.484096-12.1179455c-.442402-.3304894-1.032272-.4039315-1.548409-.1836053-.516136.2570474-.847938.771142-.847938 1.3219578v24.235892c0 .550815.331802 1.06491.847938 1.321957.221202.110163.442403.146885.626737.146885.331802 0 .663604-.110164.921672-.33049l15.484096-12.117946c.36867-.293768.553-.6977.553-1.138352 0-.440653-.2212-.881305-.553-1.138353zm-14.931092 10.245173v-18.21364l11.613069 9.10682-11.613069 9.10682z"/>
    <path fill-opacity=".2" d="M258.47191 188.276511l-8.84805-6.924541c-.2528-.188851-.58987-.230818-.8848-.104917-.29494.146884-.48454.440653-.48454.755404v13.849081c0 .314752.1896.608521.48454.755405.1264.06295.2528.08393.35813.08393.1896 0 .3792-.06295.52667-.188852l8.84805-6.92454c.21067-.167868.31601-.398686.31601-.650487 0-.251802-.1264-.503603-.31601-.650487zm-8.53205 5.854384v-10.407794l6.63604 5.203897-6.63604 5.203897zm-103.510382-5.854384l-8.8480531-6.924541c-.2528015-.188851-.58987015-.230818-.88480524-.104917-.2949351.146884-.48453622.440653-.48453622.755404v13.849081c0 .314752.18960113.608521.48453622.755405.12640075.06295.2528015.08393.35813544.08393.1896012 0 .3792023-.06295.5266698-.188852l8.8480531-6.92454c.210668-.167868.316002-.398686.316002-.650487 0-.251802-.126401-.503603-.316002-.650487zm-8.5320512 5.854384v-10.407794l6.6360396 5.203897-6.6360396 5.203897z"/>
    <path fill-opacity=".45" d="M174.56353 187.553635l-15.484093-12.1179461c-.442402-.3304895-1.032272-.4039316-1.548409-.1836053-.516136.2570474-.847938.771142-.847938 1.3219578v24.2358916c0 .550816.331802 1.06491.847938 1.321958.221202.110163.442403.146884.626737.146884.331802 0 .663604-.110163.921672-.33049l15.484093-12.117945c.368669-.293769.553003-.6977.553003-1.138353 0-.440652-.221201-.881305-.553003-1.138352zm-14.931089 10.245172v-18.2136397l11.613069 9.1068197-11.613069 9.10682z"/>
  </g>
</svg>
