<svg xmlns="http://www.w3.org/2000/svg" width="179.16667" height="69.127388" viewBox="106 153 179.16667 69.127388">
  <g fill="none" fill-rule="evenodd">
    <path fill="#acefff" d="M125 187.94h95.929688v2.8100564H125zm0 7h95.929688v2.8100564H125z"/>
    <path fill="#0cf" d="M270 191.995556v7.555555c0 .777778-.61395 1.388889-1.39535 1.388889h-21.2093c-.7814 0-1.39535-.611111-1.39535-1.388889v-7.555555c0-.777778.61395-1.388889 1.39535-1.388889.78139 0 1.39535.611111 1.39535 1.388889v6.166666h18.4186v-6.166666c0-.777778.61396-1.388889 1.39535-1.388889.7814 0 1.39535.611111 1.39535 1.388889zm-13.00465 1.722222c.25116.277778.61395.416666 1.00465.416666.3907 0 .72558-.138888 1.00465-.416666l5.55349-5.666667c.53023-.555555.53023-1.416667-.0279-1.972222-.55814-.527778-1.42325-.527778-1.98139.02778l-3.15349 3.25v-12.027778c-.00001-.77778-.61397-1.388891-1.39536-1.388891-.7814 0-1.39535.611111-1.39535 1.388889v12.027778l-3.18139-3.222223c-.53024-.555555-1.42326-.555555-1.9814-.02778-.55814.527777-.55814 1.416666-.0279 1.972222l5.5814 5.638889zM125 179.94h32.25v2.8100564H125z"/>
  </g>
</svg>
