<svg xmlns="http://www.w3.org/2000/svg" width="179.16667" height="69.127388" xmlns:xlink="http://www.w3.org/1999/xlink" viewBox="106 153 179.16667 69.127388">
  <defs>
    <path id="a" d="M60 44h91.316895v9.6308556H60z"/>
    <mask id="c" width="91.3168945" height="9.63085574" x="0" y="0" fill="#fff">
      <use width="100%" height="100%" xlink:href="#a"/>
    </mask>
    <path id="b" d="M60 59h91.316895v9.6308556H60z"/>
    <mask id="d" width="91.3168945" height="9.63085574" x="0" y="0" fill="#fff">
      <use width="100%" height="100%" xlink:href="#b"/>
    </mask>
  </defs>
  <g fill="none" fill-rule="evenodd" transform="translate(105.083 125.94)">
    <use width="100%" height="100%" stroke="#6ce2ff" stroke-width="2" xlink:href="#a" mask="url(#c)"/>
    <use width="100%" height="100%" stroke="#6ce2ff" stroke-width="2" xlink:href="#b" mask="url(#d)"/>
    <rect width="61.413307" height="8.9921808" x="74" y="77" fill="#acefff" rx="4.4960904"/>
    <path fill="#acefff" d="M51.647059 41H31.352941C30.608823 41 30 41.613636 30 42.363636v27.272728C30 70.386364 30.608823 71 31.352941 71h20.294118C52.391176 71 53 70.386364 53 69.636364V42.363636C53 41.613636 52.391176 41 51.647059 41zm-1.352941 27.272727H32.705882V43.727273h17.588236v24.545454zm-14.375-9.034091c0-.647727.541176-1.193181 1.183823-1.193181h3.991177c.642647 0 1.183823.545454 1.183823 1.193181 0 .647728-.541176 1.193182-1.183823 1.193182h-3.991177c-.67647 0-1.183823-.545454-1.183823-1.193182zm.169117-5.454545c0-.647727.541177-1.193182 1.183824-1.193182h8.05c.642647 0 1.183823.545455 1.183823 1.193182 0 .647727-.507353 1.193182-1.183823 1.193182h-8.05c-.642647 0-1.183824-.545455-1.183824-1.193182zm0-5.113636c0-.647728.541177-1.193182 1.183824-1.193182h8.05c.642647 0 1.183823.545454 1.183823 1.193182 0 .647727-.507353 1.193181-1.183823 1.193181h-8.05c-.642647 0-1.183824-.545454-1.183824-1.193181zm10.045588 9.818181c.202942.204546.338236.511364.338236.852273 0 .306818-.135294.613636-.338236.852273-.202941.238636-.541176.340909-.845588.340909s-.608823-.136364-.845588-.340909c-.236765-.204546-.338235-.511364-.338235-.852273 0-.306818.135294-.613636.338235-.852273.439706-.443181 1.251471-.443181 1.691176 0z"/>
  </g>
</svg>
