<svg xmlns="http://www.w3.org/2000/svg" width="179.16667" height="69.127388" viewBox="106 153 179.16667 69.127388">
  <g fill="#0cf" fill-rule="evenodd">
    <g transform="translate(129.083 176.94)">
      <path d="M11 2h47.560574v2.8100564H11z"/>
      <ellipse cx="3.4042485" cy="3.3957076" ry="3.3957076" rx="3.4042485"/>
    </g>
    <g transform="translate(129.083 188.94)">
      <path d="M11 2h47.560574v2.8100564H11z"/>
      <ellipse cx="3.4042485" cy="3.3957076" ry="3.3957076" rx="3.4042485"/>
    </g>
    <g transform="translate(129.083 200.94)">
      <path d="M11 2h47.560574v2.8100564H11z"/>
      <ellipse cx="3.4042485" cy="3.3957076" ry="3.3957076" rx="3.4042485"/>
    </g>
    <g transform="translate(204.083 176.94)">
      <path d="M11 2h47.560574v2.8100564H11z"/>
      <ellipse cx="3.4042485" cy="3.3957076" ry="3.3957076" rx="3.4042485"/>
    </g>
    <g transform="translate(204.083 188.94)">
      <path d="M11 2h47.560574v2.8100564H11z"/>
      <ellipse cx="3.4042485" cy="3.3957076" ry="3.3957076" rx="3.4042485"/>
    </g>
    <g transform="translate(204.083 200.94)">
      <path d="M11 2h47.560574v2.8100564H11z"/>
      <ellipse cx="3.4042485" cy="3.3957076" ry="3.3957076" rx="3.4042485"/>
    </g>
  </g>
</svg>
