<svg xmlns="http://www.w3.org/2000/svg" width="179.16667" height="69.127388" xmlns:xlink="http://www.w3.org/1999/xlink" viewBox="106 153 179.16667 69.127388">
  <defs>
    <path id="a" d="M20 138h93v9.6308556H20z"/>
    <mask id="b" width="93" height="9.63085574" x="0" y="0" fill="#fff">
      <use width="100%" height="100%" xlink:href="#a"/>
    </mask>
  </defs>
  <g fill="none" fill-rule="evenodd" transform="translate(105 53.94)">
    <path fill="#0cf" d="M31.369987 122h118v6.636641h-118z"/>
    <path fill="#fff" d="M22.225806 111.24762h-.580645v-1.34714C21.645161 107.01095 19.709677 105 17 105s-4.645161 2.01095-4.645161 4.90048v1.34714h-.580645c-.425807 0-.774194.35143-.774194.78095v9.76191c0 .42952.348387.78095.774194.78095h10.451612c.425807 0 .774194-.35143.774194-.78095v-9.76191c0-.42952-.348387-.78095-.774194-.78095zm-8.32258-1.34714c0-1.99143 1.277419-3.33858 3.096774-3.33858 1.819355 0 3.096774 1.34715 3.096774 3.33858v1.34714h-6.193548v-1.34714zm7.548387 11.10904h-8.903226v-8.2h8.903226v8.2z"/>
    <rect width="40" height="8.9921808" x="122" y="138" fill="#acefff" rx="4.4960904"/>
    <use width="100%" height="100%" stroke="#6ce2ff" stroke-width="2" xlink:href="#a" mask="url(#b)"/>
  </g>
</svg>
