<svg xmlns="http://www.w3.org/2000/svg" width="179.16667" height="69.127388" viewBox="106 153 179.16667 69.127388">
  <g fill="none" fill-rule="evenodd" transform="translate(121.083 170.94)">
    <path fill="#acefff" d="M45 17h102.45264v2.8100564H45z"/>
    <circle cx="18" cy="18" r="18" fill="#acefff"/>
    <path fill="#0cf" d="M18 19.786252c3.066576 0 5.573709-2.524282 5.573709-5.632695C23.573709 11.024282 21.066576 8.5 18 8.5s-5.573709 2.524282-5.573709 5.632695c0 3.129275 2.507133 5.653557 5.573709 5.653557zm0-9.617305c2.154891 0 3.9161 1.773256 3.9161 3.963748S20.154891 18.096443 18 18.096443s-3.916101-1.773256-3.916101-3.963748S15.845109 10.168947 18 10.168947zm2.590014 10.159712c-.269362-.08345-.580164-.02086-.787365.166895L18 22.03933l-1.80265-1.543776c-.227921-.187757-.518002-.250342-.787364-.166895-1.160326.375513-6.941236 2.378249-6.941236 5.278044 0 .45896.372962.834473.8288044.834473H26.702446c.455842 0 .828804-.375513.828804-.834473 0-2.899795-5.78091-4.902531-6.941236-5.278044zM10.561481 24.77223c.911685-.980506 3.108016-2.065322 4.931386-2.691177l1.96841 1.689809c.310802.271204.766644.271204 1.077446 0l1.96841-1.689809c1.82337.646717 4.019701 1.731532 4.931386 2.691177H10.561481z"/>
    <path fill="#acefff" d="M45 24h102.45264v2.8100564H45z"/>
    <path fill="#0cf" d="M45 9h36.639343v2.8100564H45z"/>
  </g>
</svg>
